<svg width="6" height="10" viewBox="0 0 6 10" fill="none" xmlns="http://www.w3.org/2000/svg">
<path d="M1.81458 3.648C2.26258 3.552 2.67458 3.504 3.05058 3.504C3.49858 3.504 3.89458 3.57 4.23858 3.702C4.58258 3.834 4.86858 4.016 5.09658 4.248C5.32858 4.48 5.50258 4.754 5.61858 5.07C5.73858 5.386 5.79858 5.73 5.79858 6.102C5.79858 6.558 5.71858 6.97 5.55858 7.338C5.40258 7.706 5.18458 8.022 4.90458 8.286C4.62858 8.546 4.30258 8.746 3.92658 8.886C3.55058 9.026 3.14458 9.096 2.70858 9.096C2.45658 9.096 2.21458 9.07 1.98258 9.018C1.75058 8.97 1.53258 8.904 1.32858 8.82C1.12858 8.736 0.942578 8.64 0.770578 8.532C0.598578 8.424 0.446578 8.31 0.314578 8.19L0.644578 7.734C0.716578 7.63 0.810578 7.578 0.926578 7.578C1.00658 7.578 1.09658 7.61 1.19658 7.674C1.29658 7.734 1.41858 7.802 1.56258 7.878C1.70658 7.954 1.87458 8.024 2.06658 8.088C2.26258 8.148 2.49458 8.178 2.76258 8.178C3.06258 8.178 3.33258 8.13 3.57258 8.034C3.81258 7.938 4.01858 7.802 4.19058 7.626C4.36258 7.446 4.49458 7.232 4.58658 6.984C4.67858 6.736 4.72458 6.458 4.72458 6.15C4.72458 5.882 4.68458 5.64 4.60458 5.424C4.52858 5.208 4.41058 5.024 4.25058 4.872C4.09458 4.72 3.89858 4.602 3.66258 4.518C3.42658 4.434 3.15058 4.392 2.83458 4.392C2.61858 4.392 2.39258 4.41 2.15658 4.446C1.92458 4.482 1.68658 4.54 1.44258 4.62L0.770578 4.422L1.46058 0.401999H5.53458V0.87C5.53458 1.022 5.48658 1.148 5.39058 1.248C5.29858 1.344 5.13858 1.392 4.91058 1.392H2.21058L1.81458 3.648Z" fill="white"/>
</svg>
